<svg width="150" height="36" viewBox="0 0 300 72" xmlns="http://www.w3.org/2000/svg">
  <defs>
    <linearGradient id="g" x1="0" x2="1" y1="0" y2="1">
      <stop offset="0%" stop-color="#111827"/>
      <stop offset="100%" stop-color="#2563eb"/>
    </linearGradient>
  </defs>
  <!-- Gear -->
  <g transform="translate(18,18) scale(1.2)">
    <circle cx="18" cy="18" r="6" fill="#fff"/>
    <g fill="url(#g)">
      <path d="M18 0l4 2 4-2 3 3 4-1 2 4 4 1v4l4 2-1 4 3 3-3 3 1 4-4 2v4l-4 1-2 4-4-1-3 3-4-2-4 2-3-3-4 1-2-4-4-1v-4l-4-2 1-4-3-3 3-3-1-4 4-2v-4l4-1 2-4 4 1 3-3zM18 10a8 8 0 100 16 8 8 0 000-16z"/>
    </g>
  </g>
  <!-- Text: Engineers -->
  <g transform="translate(70,48)">
    <text x="0" y="0" font-family="Inter, system-ui, -apple-system, Segoe UI, Roboto, Arial" font-weight="700" font-size="28" fill="#111827">Engineers</text>
    <text x="170" y="-14" font-family="Inter, system-ui" font-size="14" fill="#2563eb">{</text>
    <text x="182" y="-14" font-family="Inter, system-ui" font-size="14" fill="#2563eb">}</text>
  </g>
  <!-- Rounded banner -->
  <rect x="0.5" y="0.5" width="299" height="71" rx="10" ry="10" fill="none" stroke="#e5e7eb"/>
</svg>
